<svg xmlns="http://www.w3.org/2000/svg" viewBox="0 0 86.369614 86.369614" class="darkmode-icon">
        <path
       d="m 42.996968,2.248627 a 40.747889,40.747889 0 0 0 -0.22635,5.15e-4 40.747889,40.747889 0 0 0 -0.27595,0.0026 40.747889,40.747889 0 0 0 -0.27595,0.0041 40.747889,40.747889 0 0 0 -0.27647,0.0062 40.747889,40.747889 0 0 0 -0.27595,0.0083 40.747889,40.747889 0 0 0 -0.27595,0.0098 40.747889,40.747889 0 0 0 -0.27544,0.01189 40.747889,40.747889 0 0 0 -0.27595,0.01344 40.747889,40.747889 0 0 0 -0.27543,0.0155 40.747889,40.747889 0 0 0 -0.27596,0.01757 40.747889,40.747889 0 0 0 -0.27543,0.01912 40.747889,40.747889 0 0 0 -0.27492,0.02119 40.747889,40.747889 0 0 0 -0.27544,0.02325 40.747889,40.747889 0 0 0 -0.27492,0.0248 40.747889,40.747889 0 0 0 -0.27491,0.02687 40.747889,40.747889 0 0 0 -0.27441,0.02842 40.747889,40.747889 0 0 0 -0.2744,0.03049 40.747889,40.747889 0 0 0 -0.2744,0.03255 40.747889,40.747889 0 0 0 -0.27389,0.03411 40.747889,40.747889 0 0 0 -0.27388,0.03617 40.747889,40.747889 0 0 0 -0.27337,0.03772 40.747889,40.747889 0 0 0 -0.27337,0.03979 40.747889,40.747889 0 0 0 -0.27285,0.04134 40.747889,40.747889 0 0 0 -0.27285,0.04341 40.747889,40.747889 0 0 0 -0.27234,0.04547 40.747889,40.747889 0 0 0 -0.27181,0.04703 40.747889,40.747889 0 0 0 -0.27182,0.04909 40.747889,40.747889 0 0 0 -0.2713,0.05064 40.747889,40.747889 0 0 0 -0.2713,0.05271 40.747889,40.747889 0 0 0 -0.27027,0.05478 40.747889,40.747889 0 0 0 -0.27027,0.05633 40.747889,40.747889 0 0 0 -0.27027,0.05788 40.747889,40.747889 0 0 0 -0.26923,0.05994 40.747889,40.747889 0 0 0 -0.26923,0.06201 40.747889,40.747889 0 0 0 -0.26872,0.06356 40.747889,40.747889 0 0 0 -0.2682,0.06563 40.747889,40.747889 0 0 0 -0.26769,0.06718 40.747889,40.747889 0 0 0 -0.26768,0.06925 40.747889,40.747889 0 0 0 -0.26665,0.07079 40.747889,40.747889 0 0 0 -0.26613,0.07235 40.747889,40.747889 0 0 0 -0.26614,0.07493 40.747889,40.747889 0 0 0 -0.2651,0.07596 40.747889,40.747889 0 0 0 -0.2651,0.07803 40.747889,40.747889 0 0 0 -0.26406,0.0801 40.747889,40.747889 0 0 0 -0.26407,0.08165 40.747889,40.747889 0 0 0 -0.26303,0.08372 40.747889,40.747889 0 0 0 -0.26252,0.08475 40.747889,40.747889 0 0 0 -0.262,0.08733 40.747889,40.747889 0 0 0 -0.26148,0.08888 40.747889,40.747889 0 0 0 -0.26097,0.09043 40.747889,40.747889 0 0 0 -0.25993,0.0925 40.747889,40.747889 0 0 0 -0.25993,0.09405 40.747889,40.747889 0 0 0 -0.2589,0.0956 40.747889,40.747889 0 0 0 -0.25838,0.09767 40.747889,40.747889 0 0 0 -0.25735,0.09922 40.747889,40.747889 0 0 0 -0.25684,0.101286 40.747889,40.747889 0 0 0 -0.25631,0.102838 40.747889,40.747889 0 0 0 -0.2558,0.104386 40.747889,40.747889 0 0 0 -0.25476,0.106452 40.747889,40.747889 0 0 0 -0.25373,0.108003 40.747889,40.747889 0 0 0 -0.25374,0.109556 40.747889,40.747889 0 0 0 -0.2527,0.11162 40.747889,40.747889 0 0 0 -0.25166,0.113173 40.747889,40.747889 0 0 0 -0.25115,0.114721 40.747889,40.747889 0 0 0 -0.25011,0.116789 40.747889,40.747889 0 0 0 -0.2496,0.118338 40.747889,40.747889 0 0 0 -0.24856,0.11989 40.747889,40.747889 0 0 0 -0.24805,0.121439 40.747889,40.747889 0 0 0 -0.24701,0.123507 40.747889,40.747889 0 0 0 -0.24598,0.12454 40.747889,40.747889 0 0 0 -0.24546,0.127124 40.747889,40.747889 0 0 0 -0.24443,0.128156 40.747889,40.747889 0 0 0 -0.24392,0.12971 40.747889,40.747889 0 0 0 -0.24236,0.131775 40.747889,40.747889 0 0 0 -0.24184,0.133324 40.747889,40.747889 0 0 0 -0.24133,0.134877 40.747889,40.747889 0 0 0 -0.23978,0.136424 40.747889,40.747889 0 0 0 -0.23926,0.137978 40.747889,40.747889 0 0 0 -0.23823,0.140041 40.747889,40.747889 0 0 0 -0.23668,0.141078 40.747889,40.747889 0 0 0 -0.23668,0.143143 40.747889,40.747889 0 0 0 -0.23513,0.144695 40.747889,40.747889 0 0 0 -0.23409,0.145727 40.747889,40.747889 0 0 0 -0.23358,0.147794 40.747889,40.747889 0 0 0 -0.23202,0.149347 40.747889,40.747889 0 0 0 -0.231,0.150894 40.747889,40.747889 0 0 0 -0.23047,0.152445 40.747889,40.747889 0 0 0 -0.22893,0.153995 40.747889,40.747889 0 0 0 -0.22841,0.155546 40.747889,40.747889 0 0 0 -0.22686,0.157097 40.747889,40.747889 0 0 0 -0.22634,0.158647 40.747889,40.747889 0 0 0 -0.2248,0.160197 40.747889,40.747889 0 0 0 -0.22376,0.161748 40.747889,40.747889 0 0 0 -0.22272,0.163298 40.747889,40.747889 0 0 0 -0.22169,0.16433 40.747889,40.747889 0 0 0 -0.22014,0.166399 40.747889,40.747889 0 0 0 -0.21963,0.167431 40.747889,40.747889 0 0 0 -0.21807,0.169497 40.747889,40.747889 0 0 0 -0.21705,0.170532 40.747889,40.747889 0 0 0 -0.216,0.172085 40.747889,40.747889 0 0 0 -0.21498,0.173633 40.747889,40.747889 0 0 0 -0.21342,0.174665 40.747889,40.747889 0 0 0 -0.21239,0.176733 40.747889,40.747889 0 0 0 -0.21084,0.177769 40.747889,40.747889 0 0 0 -0.21032,0.179316 40.747889,40.747889 0 0 0 -0.20878,0.180866 40.747889,40.747889 0 0 0 -0.20722,0.181901 40.747889,40.747889 0 0 0 -0.20619,0.18397 40.747889,40.747889 0 0 0 -0.20515,0.184484 40.747889,40.747889 0 0 0 -0.20361,0.186552 40.747889,40.747889 0 0 0 -0.20257,0.18758 40.747889,40.747889 0 0 0 -0.20154,0.18914 40.747889,40.747889 0 0 0 -0.19947,0.19068 40.747889,40.747889 0 0 0 -0.19895,0.19172 40.747889,40.747889 0 0 0 -0.19741,0.19276 40.747889,40.747889 0 0 0 -0.19585,0.19481 40.747889,40.747889 0 0 0 -0.19482,0.19586 40.747889,40.747889 0 0 0 -0.19327,0.19689 40.747889,40.747889 0 0 0 -0.19172,0.19843 40.747889,40.747889 0 0 0 -0.19069,0.19948 40.747889,40.747889 0 0 0 -0.189648,0.20102 40.747889,40.747889 0 0 0 -0.18758,0.20257 40.747889,40.747889 0 0 0 -0.18707,0.20308 40.747889,40.747889 0 0 0 -0.185,0.20516 40.747889,40.747889 0 0 0 -0.18397,0.20567 40.747889,40.747889 0 0 0 -0.18242,0.20774 40.747889,40.747889 0 0 0 -0.18087,0.20826 40.747889,40.747889 0 0 0 -0.17932,0.2098 40.747889,40.747889 0 0 0 -0.17828,0.21085 40.747889,40.747889 0 0 0 -0.17673,0.21238 40.747889,40.747889 0 0 0 -0.17518,0.21343 40.747889,40.747889 0 0 0 -0.17416,0.21446 40.747889,40.747889 0 0 0 -0.17208,0.21549 40.747889,40.747889 0 0 0 -0.17105,0.21704 40.747889,40.747889 0 0 0 -0.1695,0.21807 40.747889,40.747889 0 0 0 -0.16794,0.21911 40.747889,40.747889 0 0 0 -0.1664,0.22014 40.747889,40.747889 0 0 0 -0.16485,0.22118 40.747889,40.747889 0 0 0 -0.1633,0.22272 40.747889,40.747889 0 0 0 -0.16226,0.22376 40.747889,40.747889 0 0 0 -0.1602,0.22479 40.747889,40.747889 0 0 0 -0.15916,0.22583 40.747889,40.747889 0 0 0 -0.1571,0.22686 40.747889,40.747889 0 0 0 -0.15606,0.22789 40.747889,40.747889 0 0 0 -0.154,0.22893 40.747889,40.747889 0 0 0 -0.15296,0.22996 40.747889,40.747889 0 0 0 -0.15089,0.23099 40.747889,40.747889 0 0 0 -0.14986,0.23203 40.747889,40.747889 0 0 0 -0.1478,0.23306 40.747889,40.747889 0 0 0 -0.14676,0.23409 40.747889,40.747889 0 0 0 -0.14469,0.23513 40.747889,40.747889 0 0 0 -0.14315,0.23616 40.747889,40.747889 0 0 0 -0.14159,0.23668 40.747889,40.747889 0 0 0 -0.14005,0.23823 40.747889,40.747889 0 0 0 -0.13849,0.23875 40.747889,40.747889 0 0 0 -0.13694,0.23977 40.747889,40.747889 0 0 0 -0.13488,0.24081 40.747889,40.747889 0 0 0 -0.13384,0.24185 40.747889,40.747889 0 0 0 -0.13177,0.24236 40.747889,40.747889 0 0 0 -0.13023,0.2434 40.747889,40.747889 0 0 0 -0.12867,0.24443 40.747889,40.747889 0 0 0 -0.12661,0.24546 40.747889,40.747889 0 0 0 -0.12557,0.24598 40.747889,40.747889 0 0 0 -0.12351,0.2465 40.747889,40.747889 0 0 0 -0.12196,0.24805 40.747889,40.747889 0 0 0 -0.1204,0.24856 40.747889,40.747889 0 0 0 -0.11834,0.24908 40.747889,40.747889 0 0 0 -0.11679,0.25011 40.747889,40.747889 0 0 0 -0.11524,0.25115 40.747889,40.747889 0 0 0 -0.11369,0.25167 40.747889,40.747889 0 0 0 -0.11162,0.25269 40.747889,40.747889 0 0 0 -0.11007,0.25322 40.747889,40.747889 0 0 0 -0.10852,0.25373 40.747889,40.747889 0 0 0 -0.10645,0.25476 40.747889,40.747889 0 0 0 -0.1049,0.25529 40.747889,40.747889 0 0 0 -0.10284,0.25631 40.747889,40.747889 0 0 0 -0.1018,0.25683 40.747889,40.747889 0 0 0 -0.0992,0.25735 40.747889,40.747889 0 0 0 -0.0982,0.25838 40.747889,40.747889 0 0 0 -0.0961,0.2589 40.747889,40.747889 0 0 0 -0.0946,0.25942 40.747889,40.747889 0 0 0 -0.0925,0.25993 40.747889,40.747889 0 0 0 -0.0909,0.26045 40.747889,40.747889 0 0 0 -0.0889,0.26148 40.747889,40.747889 0 0 0 -0.0873,0.262 40.747889,40.747889 0 0 0 -0.0858,0.26252 40.747889,40.747889 0 0 0 -0.0837,0.26303 40.747889,40.747889 0 0 0 -0.0822,0.26355 40.747889,40.747889 0 0 0 -0.0801,0.26459 40.747889,40.747889 0 0 0 -0.0785,0.26458 40.747889,40.747889 0 0 0 -0.0765,0.2651 40.747889,40.747889 0 0 0 -0.0749,0.26562 40.747889,40.747889 0 0 0 -0.0729,0.26665 40.747889,40.747889 0 0 0 -0.0713,0.26665 40.747889,40.747889 0 0 0 -0.0692,0.26716 40.747889,40.747889 0 0 0 -0.0677,0.26769 40.747889,40.747889 0 0 0 -0.0656,0.2682 40.747889,40.747889 0 0 0 -0.0641,0.26871 40.747889,40.747889 0 0 0 -0.062,0.26872 40.747889,40.747889 0 0 0 -0.0605,0.26975 40.747889,40.747889 0 0 0 -0.0584,0.26975 40.747889,40.747889 0 0 0 -0.0568,0.27027 40.747889,40.747889 0 0 0 -0.0548,0.27079 40.747889,40.747889 0 0 0 -0.0527,0.27078 40.747889,40.747889 0 0 0 -0.0512,0.2713 40.747889,40.747889 0 0 0 -0.0496,0.27182 40.747889,40.747889 0 0 0 -0.0475,0.27182 40.747889,40.747889 0 0 0 -0.0455,0.27233 40.747889,40.747889 0 0 0 -0.0439,0.27285 40.747889,40.747889 0 0 0 -0.0419,0.27285 40.747889,40.747889 0 0 0 -0.0398,0.27286 40.747889,40.747889 0 0 0 -0.0382,0.27337 40.747889,40.747889 0 0 0 -0.0367,0.27388 40.747889,40.747889 0 0 0 -0.0346,0.27389 40.747889,40.747889 0 0 0 -0.0326,0.2744 40.747889,40.747889 0 0 0 -0.0305,0.2744 40.747889,40.747889 0 0 0 -0.0289,0.2744 40.747889,40.747889 0 0 0 -0.0274,0.27492 40.747889,40.747889 0 0 0 -0.0253,0.27492 40.747889,40.747889 0 0 0 -0.0232,0.27492 40.747889,40.747889 0 0 0 -0.0212,0.27543 40.747889,40.747889 0 0 0 -0.0196,0.27544 40.747889,40.747889 0 0 0 -0.0181,0.27543 40.747889,40.747889 0 0 0 -0.016,0.27544 40.747889,40.747889 0 0 0 -0.014,0.27595 40.747889,40.747889 0 0 0 -0.0119,0.27595 40.747889,40.747889 0 0 0 -0.0103,0.27595 40.747889,40.747889 0 0 0 -0.008,0.27596 40.747889,40.747889 0 0 0 -0.007,0.27595 40.747889,40.747889 0 0 0 -0.005,0.27595 40.747889,40.747889 0 0 0 -0.003,0.27595 40.747889,40.747889 0 0 0 -5.1e-4,0.27647 40.747889,40.747889 0 0 0 5.1e-4,0.22583 40.747889,40.747889 0 0 0 0.003,0.27595 40.747889,40.747889 0 0 0 0.004,0.27647 40.747889,40.747889 0 0 0 0.006,0.27595 40.747889,40.747889 0 0 0 0.008,0.27596 40.747889,40.747889 0 0 0 0.01,0.27595 40.747889,40.747889 0 0 0 0.0119,0.27595 40.747889,40.747889 0 0 0 0.0134,0.27543 40.747889,40.747889 0 0 0 0.0155,0.27596 40.747889,40.747889 0 0 0 0.0176,0.27543 40.747889,40.747889 0 0 0 0.0191,0.27544 40.747889,40.747889 0 0 0 0.0212,0.27543 40.747889,40.747889 0 0 0 0.0233,0.27492 40.747889,40.747889 0 0 0 0.0248,0.27492 40.747889,40.747889 0 0 0 0.0269,0.27492 40.747889,40.747889 0 0 0 0.0284,0.27492 40.747889,40.747889 0 0 0 0.0305,0.2744 40.747889,40.747889 0 0 0 0.0325,0.27388 40.747889,40.747889 0 0 0 0.0341,0.27389 40.747889,40.747889 0 0 0 0.0362,0.27388 40.747889,40.747889 0 0 0 0.0377,0.27337 40.747889,40.747889 0 0 0 0.0398,0.27337 40.747889,40.747889 0 0 0 0.0413,0.27285 40.747889,40.747889 0 0 0 0.0434,0.27285 40.747889,40.747889 0 0 0 0.0455,0.27234 40.747889,40.747889 0 0 0 0.047,0.27182 40.747889,40.747889 0 0 0 0.0491,0.27181 40.747889,40.747889 0 0 0 0.0506,0.2713 40.747889,40.747889 0 0 0 0.0527,0.27131 40.747889,40.747889 0 0 0 0.0548,0.27078 40.747889,40.747889 0 0 0 0.0563,0.27027 40.747889,40.747889 0 0 0 0.0579,0.26975 40.747889,40.747889 0 0 0 0.06,0.26975 40.747889,40.747889 0 0 0 0.062,0.26872 40.747889,40.747889 0 0 0 0.0636,0.26872 40.747889,40.747889 0 0 0 0.0656,0.2682 40.747889,40.747889 0 0 0 0.0672,0.2682 40.747889,40.747889 0 0 0 0.0693,0.26717 40.747889,40.747889 0 0 0 0.0708,0.26665 40.747889,40.747889 0 0 0 0.0724,0.26664 40.747889,40.747889 0 0 0 0.0749,0.26562 40.747889,40.747889 0 0 0 0.076,0.26562 40.747889,40.747889 0 0 0 0.078,0.26458 40.747889,40.747889 0 0 0 0.0801,0.26458 40.747889,40.747889 0 0 0 0.0816,0.26356 40.747889,40.747889 0 0 0 0.0832,0.26303 40.747889,40.747889 0 0 0 0.0853,0.26252 40.747889,40.747889 0 0 0 0.0873,0.26199 40.747889,40.747889 0 0 0 0.0889,0.26149 40.747889,40.747889 0 0 0 0.0904,0.26096 40.747889,40.747889 0 0 0 0.0925,0.26045 40.747889,40.747889 0 0 0 0.094,0.25942 40.747889,40.747889 0 0 0 0.0956,0.2589 40.747889,40.747889 0 0 0 0.0977,0.25838 40.747889,40.747889 0 0 0 0.0992,0.25735 40.747889,40.747889 0 0 0 0.10128,0.25735 40.747889,40.747889 0 0 0 0.10284,0.25579 40.747889,40.747889 0 0 0 0.10439,0.2558 40.747889,40.747889 0 0 0 0.10645,0.25477 40.747889,40.747889 0 0 0 0.108,0.25425 40.747889,40.747889 0 0 0 0.10956,0.25321 40.747889,40.747889 0 0 0 0.11162,0.2527 40.747889,40.747889 0 0 0 0.11317,0.25166 40.747889,40.747889 0 0 0 0.11472,0.25115 40.747889,40.747889 0 0 0 0.11679,0.25063 40.747889,40.747889 0 0 0 0.11782,0.24908 40.747889,40.747889 0 0 0 0.12041,0.24908 40.747889,40.747889 0 0 0 0.12144,0.24753 40.747889,40.747889 0 0 0 0.12351,0.24702 40.747889,40.747889 0 0 0 0.12454,0.24649 40.747889,40.747889 0 0 0 0.1266,0.24546 40.747889,40.747889 0 0 0 0.12868,0.24443 40.747889,40.747889 0 0 0 0.12971,0.2434 40.747889,40.747889 0 0 0 0.13177,0.24288 40.747889,40.747889 0 0 0 0.13333,0.24184 40.747889,40.747889 0 0 0 0.13487,0.24082 40.747889,40.747889 0 0 0 0.13643,0.23978 40.747889,40.747889 0 0 0 0.13797,0.23926 40.747889,40.747889 0 0 0 0.13953,0.23823 40.747889,40.747889 0 0 0 0.14159,0.23719 40.747889,40.747889 0 0 0 0.14315,0.23616 40.747889,40.747889 0 0 0 0.14417,0.23513 40.747889,40.747889 0 0 0 0.14625,0.2341 40.747889,40.747889 0 0 0 0.14779,0.23357 40.747889,40.747889 0 0 0 0.14935,0.23203 40.747889,40.747889 0 0 0 0.15089,0.23151 40.747889,40.747889 0 0 0 0.15245,0.22996 40.747889,40.747889 0 0 0 0.15399,0.22944 40.747889,40.747889 0 0 0 0.15555,0.2279 40.747889,40.747889 0 0 0 0.1571,0.22737 40.747889,40.747889 0 0 0 0.15864,0.22583 40.747889,40.747889 0 0 0 0.1602,0.22479 40.747889,40.747889 0 0 0 0.16175,0.22376 40.747889,40.747889 0 0 0 0.16278,0.22273 40.747889,40.747889 0 0 0 0.16485,0.22169 40.747889,40.747889 0 0 0 0.1664,0.22065 40.747889,40.747889 0 0 0 0.16743,0.21911 40.747889,40.747889 0 0 0 0.16949,0.21808 40.747889,40.747889 0 0 0 0.17054,0.21755 40.747889,40.747889 0 0 0 0.17208,0.2155 40.747889,40.747889 0 0 0 0.17363,0.21497 40.747889,40.747889 0 0 0 0.17467,0.21342 40.747889,40.747889 0 0 0 0.17673,0.21239 40.747889,40.747889 0 0 0 0.17777,0.211364 40.747889,40.747889 0 0 0 0.17932,0.20981 40.747889,40.747889 0 0 0 0.18086,0.20877 40.747889,40.747889 0 0 0 0.1819,0.20722 40.747889,40.747889 0 0 0 0.18346,0.20671 40.747889,40.747889 0 0 0 0.185,0.20464 40.747889,40.747889 0 0 0 0.18655,0.20412 40.747889,40.747889 0 0 0 0.18758,0.20205 40.747889,40.747889 0 0 0 0.189138,0.20154 40.747889,40.747889 0 0 0 0.19017,0.19999 40.747889,40.747889 0 0 0 0.19224,0.19844 40.747889,40.747889 0 0 0 0.19275,0.1974 40.747889,40.747889 0 0 0 0.19482,0.19585 40.747889,40.747889 0 0 0 0.19534,0.19482 40.747889,40.747889 0 0 0 0.1974,0.19327 40.747889,40.747889 0 0 0 0.19844,0.19224 40.747889,40.747889 0 0 0 0.19947,0.19069 40.747889,40.747889 0 0 0 0.20102,0.18913 40.747889,40.747889 0 0 0 0.20257,0.18811 40.747889,40.747889 0 0 0 0.20309,0.18655 40.747889,40.747889 0 0 0 0.20516,0.185 40.747889,40.747889 0 0 0 0.20567,0.18397 40.747889,40.747889 0 0 0 0.20722,0.18241 40.747889,40.747889 0 0 0 0.20877,0.18087 40.747889,40.747889 0 0 0 0.20981,0.17984 40.747889,40.747889 0 0 0 0.21084,0.17776 40.747889,40.747889 0 0 0 0.21239,0.17673 40.747889,40.747889 0 0 0 0.21291,0.17519 40.747889,40.747889 0 0 0 0.21497,0.17415 40.747889,40.747889 0 0 0 0.21549,0.17208 40.747889,40.747889 0 0 0 0.21704,0.17105 40.747889,40.747889 0 0 0 0.21756,0.1695 40.747889,40.747889 0 0 0 0.21962,0.16795 40.747889,40.747889 0 0 0 0.22015,0.1664 40.747889,40.747889 0 0 0 0.22117,0.16484 40.747889,40.747889 0 0 0 0.22273,0.16382 40.747889,40.747889 0 0 0 0.22376,0.16174 40.747889,40.747889 0 0 0 0.22427,0.1602 40.747889,40.747889 0 0 0 0.22583,0.15916 40.747889,40.747889 0 0 0 0.22686,0.1571 40.747889,40.747889 0 0 0 0.22789,0.15606 40.747889,40.747889 0 0 0 0.22944,0.15452 40.747889,40.747889 0 0 0 0.22996,0.15244 40.747889,40.747889 0 0 0 0.231,0.15141 40.747889,40.747889 0 0 0 0.23202,0.14935 40.747889,40.747889 0 0 0 0.23307,0.14831 40.747889,40.747889 0 0 0 0.23409,0.14625 40.747889,40.747889 0 0 0 0.23513,0.14469 40.747889,40.747889 0 0 0 0.23616,0.14314 40.747889,40.747889 0 0 0 0.23668,0.1416 40.747889,40.747889 0 0 0 0.23823,0.14004 40.747889,40.747889 0 0 0 0.23874,0.13849 40.747889,40.747889 0 0 0 0.23978,0.13694 40.747889,40.747889 0 0 0 0.24081,0.1354 40.747889,40.747889 0 0 0 0.24185,0.13332 40.747889,40.747889 0 0 0 0.24236,0.13178 40.747889,40.747889 0 0 0 0.24339,0.13022 40.747889,40.747889 0 0 0 0.24443,0.12868 40.747889,40.747889 0 0 0 0.24495,0.12712 40.747889,40.747889 0 0 0 0.2465,0.12506 40.747889,40.747889 0 0 0 0.24649,0.1235 40.747889,40.747889 0 0 0 0.24805,0.12196 40.747889,40.747889 0 0 0 0.24856,0.12041 40.747889,40.747889 0 0 0 0.24909,0.11833 40.747889,40.747889 0 0 0 0.25011,0.11731 40.747889,40.747889 0 0 0 0.25115,0.11472 40.747889,40.747889 0 0 0 0.25166,0.11369 40.747889,40.747889 0 0 0 0.2527,0.11162 40.747889,40.747889 0 0 0 0.25321,0.11007 40.747889,40.747889 0 0 0 0.25373,0.10852 40.747889,40.747889 0 0 0 0.25477,0.10646 40.747889,40.747889 0 0 0 0.25528,0.1049 40.747889,40.747889 0 0 0 0.25632,0.10335 40.747889,40.747889 0 0 0 0.25683,0.10129 40.747889,40.747889 0 0 0 0.25735,0.0997 40.747889,40.747889 0 0 0 0.25838,0.0977 40.747889,40.747889 0 0 0 0.25838,0.0961 40.747889,40.747889 0 0 0 0.25993,0.0946 40.747889,40.747889 0 0 0 0.25993,0.0925 40.747889,40.747889 0 0 0 0.26045,0.0909 40.747889,40.747889 0 0 0 0.26149,0.0894 40.747889,40.747889 0 0 0 0.262,0.0873 40.747889,40.747889 0 0 0 0.26251,0.0853 40.747889,40.747889 0 0 0 0.26304,0.0837 40.747889,40.747889 0 0 0 0.26355,0.0822 40.747889,40.747889 0 0 0 0.26406,0.0801 40.747889,40.747889 0 0 0 0.2651,0.0786 40.747889,40.747889 0 0 0 0.2651,0.0765 40.747889,40.747889 0 0 0 0.26562,0.0749 40.747889,40.747889 0 0 0 0.26665,0.0729 40.747889,40.747889 0 0 0 0.26665,0.0713 40.747889,40.747889 0 0 0 0.26717,0.0692 40.747889,40.747889 0 0 0 0.26768,0.0677 40.747889,40.747889 0 0 0 0.2682,0.0661 40.747889,40.747889 0 0 0 0.26872,0.0636 40.747889,40.747889 0 0 0 0.26872,0.0625 40.747889,40.747889 0 0 0 0.26975,0.06 40.747889,40.747889 0 0 0 0.26975,0.0584 40.747889,40.747889 0 0 0 0.27027,0.0568 40.747889,40.747889 0 0 0 0.27026,0.0548 40.747889,40.747889 0 0 0 0.27131,0.0532 40.747889,40.747889 0 0 0 0.2713,0.0512 40.747889,40.747889 0 0 0 0.27181,0.0491 40.747889,40.747889 0 0 0 0.27182,0.0476 40.747889,40.747889 0 0 0 0.27234,0.0455 40.747889,40.747889 0 0 0 0.27233,0.0439 40.747889,40.747889 0 0 0 0.27337,0.0418 40.747889,40.747889 0 0 0 0.27285,0.0403 40.747889,40.747889 0 0 0 0.27337,0.0382 40.747889,40.747889 0 0 0 0.27388,0.0362 40.747889,40.747889 0 0 0 0.27389,0.0346 40.747889,40.747889 0 0 0 0.2744,0.0326 40.747889,40.747889 0 0 0 0.2744,0.031 40.747889,40.747889 0 0 0 0.27441,0.0289 40.747889,40.747889 0 0 0 0.27491,0.0269 40.747889,40.747889 0 0 0 0.27492,0.0253 40.747889,40.747889 0 0 0 0.27492,0.0233 40.747889,40.747889 0 0 0 0.27544,0.0217 40.747889,40.747889 0 0 0 0.27543,0.0196 40.747889,40.747889 0 0 0 0.27544,0.0176 40.747889,40.747889 0 0 0 0.27543,0.016 40.747889,40.747889 0 0 0 0.27596,0.0139 40.747889,40.747889 0 0 0 0.27595,0.0124 40.747889,40.747889 0 0 0 0.27595,0.01 40.747889,40.747889 0 0 0 0.27595,0.009 40.747889,40.747889 0 0 0 0.27595,0.006 40.747889,40.747889 0 0 0 0.27596,0.005 40.747889,40.747889 0 0 0 0.27595,0.003 40.747889,40.747889 0 0 0 0.27647,0.001 z"
       style="fill:#000000;stroke:none;stroke-width:4.49792;stroke-linecap:round;stroke-miterlimit:4;stroke-dasharray:none"
       id="rect914" />
    <circle
       r="40.935848"
       cy="43.184803"
       cx="43.184803"
       id="path975"
       style="fill:none;stroke:#000000;stroke-width:4.49791668;stroke-linecap:round;stroke-miterlimit:4;stroke-dasharray:none" />
</svg>