<svg xmlns="http://www.w3.org/2000/svg" viewBox="0 0 86.37 86.37" class="darkmode-icon"><path d="M42.997 2.249a40.748 40.748 0 00-.226 0 40.748 40.748 0 00-.276.003 40.748 40.748 0 00-.276.004 40.748 40.748 0 00-.277.006 40.748 40.748 0 00-.276.008 40.748 40.748 0 00-.276.01 40.748 40.748 0 00-.275.012 40.748 40.748 0 00-.276.013 40.748 40.748 0 00-.275.016 40.748 40.748 0 00-.276.018 40.748 40.748 0 00-.276.019 40.748 40.748 0 00-.275.02 40.748 40.748 0 00-.275.024 40.748 40.748 0 00-.275.025 40.748 40.748 0 00-.275.027 40.748 40.748 0 00-.274.028 40.748 40.748 0 00-.275.03 40.748 40.748 0 00-.274.033 40.748 40.748 0 00-.274.034 40.748 40.748 0 00-.274.037 40.748 40.748 0 00-.273.037 40.748 40.748 0 00-.274.04 40.748 40.748 0 00-.273.041 40.748 40.748 0 00-.272.044 40.748 40.748 0 00-.273.045 40.748 40.748 0 00-.272.047 40.748 40.748 0 00-.271.05 40.748 40.748 0 00-.272.05 40.748 40.748 0 00-.271.053 40.748 40.748 0 00-.27.054 40.748 40.748 0 00-.27.057 40.748 40.748 0 00-.27.058 40.748 40.748 0 00-.27.06 40.748 40.748 0 00-.27.062 40.748 40.748 0 00-.268.063 40.748 40.748 0 00-.268.066 40.748 40.748 0 00-.268.067 40.748 40.748 0 00-.268.07 40.748 40.748 0 00-.266.07 40.748 40.748 0 00-.266.072 40.748 40.748 0 00-.267.075 40.748 40.748 0 00-.265.076 40.748 40.748 0 00-.265.078 40.748 40.748 0 00-.264.08 40.748 40.748 0 00-.264.082 40.748 40.748 0 00-.263.084 40.748 40.748 0 00-.262.085 40.748 40.748 0 00-.262.087 40.748 40.748 0 00-.262.089 40.748 40.748 0 00-.26.09 40.748 40.748 0 00-.26.093 40.748 40.748 0 00-.26.094 40.748 40.748 0 00-.26.095 40.748 40.748 0 00-.258.098 40.748 40.748 0 00-.257.1 40.748 40.748 0 00-.257.1 40.748 40.748 0 00-.256.103 40.748 40.748 0 00-.256.105 40.748 40.748 0 00-.255.106 40.748 40.748 0 00-.254.108 40.748 40.748 0 00-.254.11 40.748 40.748 0 00-.252.111 40.748 40.748 0 00-.252.114 40.748 40.748 0 00-.251.114 40.748 40.748 0 00-.25.117 40.748 40.748 0 00-.25.118 40.748 40.748 0 00-.248.12 40.748 40.748 0 00-.248.122 40.748 40.748 0 00-.247.123 40.748 40.748 0 00-.246.125 40.748 40.748 0 00-.246.127 40.748 40.748 0 00-.244.128 40.748 40.748 0 00-.244.13 40.748 40.748 0 00-.243.132 40.748 40.748 0 00-.241.133 40.748 40.748 0 00-.242.135 40.748 40.748 0 00-.24.136 40.748 40.748 0 00-.239.138 40.748 40.748 0 00-.238.14 40.748 40.748 0 00-.237.141 40.748 40.748 0 00-.236.143 40.748 40.748 0 00-.235.145 40.748 40.748 0 00-.235.146 40.748 40.748 0 00-.233.148 40.748 40.748 0 00-.232.149 40.748 40.748 0 00-.231.15 40.748 40.748 0 00-.23.153 40.748 40.748 0 00-.23.154 40.748 40.748 0 00-.228.156 40.748 40.748 0 00-.227.157 40.748 40.748 0 00-.226.159 40.748 40.748 0 00-.225.16 40.748 40.748 0 00-.224.162 40.748 40.748 0 00-.222.163 40.748 40.748 0 00-.222.164 40.748 40.748 0 00-.22.167 40.748 40.748 0 00-.22.167 40.748 40.748 0 00-.218.17 40.748 40.748 0 00-.217.17 40.748 40.748 0 00-.216.172 40.748 40.748 0 00-.215.174 40.748 40.748 0 00-.213.174 40.748 40.748 0 00-.213.177 40.748 40.748 0 00-.21.178 40.748 40.748 0 00-.211.18 40.748 40.748 0 00-.209.18 40.748 40.748 0 00-.207.182 40.748 40.748 0 00-.206.184 40.748 40.748 0 00-.205.184 40.748 40.748 0 00-.204.187 40.748 40.748 0 00-.202.188 40.748 40.748 0 00-.202.189 40.748 40.748 0 00-.2.19 40.748 40.748 0 00-.198.192 40.748 40.748 0 00-.198.193 40.748 40.748 0 00-.196.195 40.748 40.748 0 00-.195.196 40.748 40.748 0 00-.193.196 40.748 40.748 0 00-.192.199 40.748 40.748 0 00-.19.2 40.748 40.748 0 00-.19.2 40.748 40.748 0 00-.187.203 40.748 40.748 0 00-.187.203 40.748 40.748 0 00-.185.205 40.748 40.748 0 00-.184.206 40.748 40.748 0 00-.183.208 40.748 40.748 0 00-.18.208 40.748 40.748 0 00-.18.21 40.748 40.748 0 00-.178.21 40.748 40.748 0 00-.177.213 40.748 40.748 0 00-.175.213 40.748 40.748 0 00-.174.215 40.748 40.748 0 00-.172.215 40.748 40.748 0 00-.172.217 40.748 40.748 0 00-.169.218 40.748 40.748 0 00-.168.22 40.748 40.748 0 00-.166.22 40.748 40.748 0 00-.165.22 40.748 40.748 0 00-.164.224 40.748 40.748 0 00-.162.223 40.748 40.748 0 00-.16.225 40.748 40.748 0 00-.16.226 40.748 40.748 0 00-.156.227 40.748 40.748 0 00-.156.228 40.748 40.748 0 00-.154.229 40.748 40.748 0 00-.153.23 40.748 40.748 0 00-.151.23 40.748 40.748 0 00-.15.233 40.748 40.748 0 00-.148.233 40.748 40.748 0 00-.147.234 40.748 40.748 0 00-.144.235 40.748 40.748 0 00-.143.236 40.748 40.748 0 00-.142.237 40.748 40.748 0 00-.14.238 40.748 40.748 0 00-.139.239 40.748 40.748 0 00-.136.24 40.748 40.748 0 00-.135.24 40.748 40.748 0 00-.134.242 40.748 40.748 0 00-.132.242 40.748 40.748 0 00-.13.244 40.748 40.748 0 00-.129.244 40.748 40.748 0 00-.126.246 40.748 40.748 0 00-.126.246 40.748 40.748 0 00-.124.246 40.748 40.748 0 00-.122.248 40.748 40.748 0 00-.12.249 40.748 40.748 0 00-.118.249 40.748 40.748 0 00-.117.25 40.748 40.748 0 00-.115.251 40.748 40.748 0 00-.114.252 40.748 40.748 0 00-.112.253 40.748 40.748 0 00-.11.253 40.748 40.748 0 00-.108.253 40.748 40.748 0 00-.107.255 40.748 40.748 0 00-.105.256 40.748 40.748 0 00-.102.256 40.748 40.748 0 00-.102.257 40.748 40.748 0 00-.1.257 40.748 40.748 0 00-.098.258 40.748 40.748 0 00-.096.26 40.748 40.748 0 00-.094.259 40.748 40.748 0 00-.093.26 40.748 40.748 0 00-.09.26 40.748 40.748 0 00-.09.262 40.748 40.748 0 00-.087.262 40.748 40.748 0 00-.086.262 40.748 40.748 0 00-.083.263 40.748 40.748 0 00-.083.264 40.748 40.748 0 00-.08.264 40.748 40.748 0 00-.078.265 40.748 40.748 0 00-.077.265 40.748 40.748 0 00-.075.266 40.748 40.748 0 00-.072.266 40.748 40.748 0 00-.072.267 40.748 40.748 0 00-.069.267 40.748 40.748 0 00-.068.268 40.748 40.748 0 00-.065.268 40.748 40.748 0 00-.064.269 40.748 40.748 0 00-.062.268 40.748 40.748 0 00-.06.27 40.748 40.748 0 00-.06.27 40.748 40.748 0 00-.056.27 40.748 40.748 0 00-.055.27 40.748 40.748 0 00-.053.272 40.748 40.748 0 00-.05.271 40.748 40.748 0 00-.05.272 40.748 40.748 0 00-.048.272 40.748 40.748 0 00-.045.272 40.748 40.748 0 00-.044.273 40.748 40.748 0 00-.042.273 40.748 40.748 0 00-.04.273 40.748 40.748 0 00-.038.273 40.748 40.748 0 00-.037.274 40.748 40.748 0 00-.034.274 40.748 40.748 0 00-.033.274 40.748 40.748 0 00-.03.274 40.748 40.748 0 00-.03.275 40.748 40.748 0 00-.027.275 40.748 40.748 0 00-.025.275 40.748 40.748 0 00-.023.275 40.748 40.748 0 00-.022.275 40.748 40.748 0 00-.02.275 40.748 40.748 0 00-.017.276 40.748 40.748 0 00-.016.275 40.748 40.748 0 00-.014.276 40.748 40.748 0 00-.012.276 40.748 40.748 0 00-.01.276 40.748 40.748 0 00-.008.276 40.748 40.748 0 00-.007.276 40.748 40.748 0 00-.005.276 40.748 40.748 0 00-.003.276 40.748 40.748 0 00-.001.276 40.748 40.748 0 000 .226 40.748 40.748 0 00.004.276 40.748 40.748 0 00.004.277 40.748 40.748 0 00.006.276 40.748 40.748 0 00.008.276 40.748 40.748 0 00.01.276 40.748 40.748 0 00.011.276 40.748 40.748 0 00.014.275 40.748 40.748 0 00.015.276 40.748 40.748 0 00.018.275 40.748 40.748 0 00.019.276 40.748 40.748 0 00.021.275 40.748 40.748 0 00.024.275 40.748 40.748 0 00.024.275 40.748 40.748 0 00.027.275 40.748 40.748 0 00.029.275 40.748 40.748 0 00.03.274 40.748 40.748 0 00.033.274 40.748 40.748 0 00.034.274 40.748 40.748 0 00.036.274 40.748 40.748 0 00.038.273 40.748 40.748 0 00.04.274 40.748 40.748 0 00.04.273 40.748 40.748 0 00.044.272 40.748 40.748 0 00.046.273 40.748 40.748 0 00.047.272 40.748 40.748 0 00.049.271 40.748 40.748 0 00.05.272 40.748 40.748 0 00.053.271 40.748 40.748 0 00.055.27 40.748 40.748 0 00.056.271 40.748 40.748 0 00.058.27 40.748 40.748 0 00.06.27 40.748 40.748 0 00.062.268 40.748 40.748 0 00.064.269 40.748 40.748 0 00.065.268 40.748 40.748 0 00.067.268 40.748 40.748 0 00.07.268 40.748 40.748 0 00.07.266 40.748 40.748 0 00.073.267 40.748 40.748 0 00.075.265 40.748 40.748 0 00.076.266 40.748 40.748 0 00.078.265 40.748 40.748 0 00.08.264 40.748 40.748 0 00.082.264 40.748 40.748 0 00.083.263 40.748 40.748 0 00.085.262 40.748 40.748 0 00.087.262 40.748 40.748 0 00.09.262 40.748 40.748 0 00.09.26 40.748 40.748 0 00.092.261 40.748 40.748 0 00.094.26 40.748 40.748 0 00.096.259 40.748 40.748 0 00.097.258 40.748 40.748 0 00.1.257 40.748 40.748 0 00.1.258 40.748 40.748 0 00.104.255 40.748 40.748 0 00.104.256 40.748 40.748 0 00.107.255 40.748 40.748 0 00.108.254 40.748 40.748 0 00.11.253 40.748 40.748 0 00.11.253 40.748 40.748 0 00.114.252 40.748 40.748 0 00.115.251 40.748 40.748 0 00.116.25 40.748 40.748 0 00.118.25 40.748 40.748 0 00.12.249 40.748 40.748 0 00.122.247 40.748 40.748 0 00.124.247 40.748 40.748 0 00.124.247 40.748 40.748 0 00.127.245 40.748 40.748 0 00.128.245 40.748 40.748 0 00.13.243 40.748 40.748 0 00.132.243 40.748 40.748 0 00.133.242 40.748 40.748 0 00.135.24 40.748 40.748 0 00.137.24 40.748 40.748 0 00.138.24 40.748 40.748 0 00.139.238 40.748 40.748 0 00.142.237 40.748 40.748 0 00.143.236 40.748 40.748 0 00.144.235 40.748 40.748 0 00.146.234 40.748 40.748 0 00.148.234 40.748 40.748 0 00.15.232 40.748 40.748 0 00.15.232 40.748 40.748 0 00.153.23 40.748 40.748 0 00.154.229 40.748 40.748 0 00.155.228 40.748 40.748 0 00.157.227 40.748 40.748 0 00.159.226 40.748 40.748 0 00.16.225 40.748 40.748 0 00.162.224 40.748 40.748 0 00.163.222 40.748 40.748 0 00.165.222 40.748 40.748 0 00.166.22 40.748 40.748 0 00.167.22 40.748 40.748 0 00.17.218 40.748 40.748 0 00.17.217 40.748 40.748 0 00.172.216 40.748 40.748 0 00.174.215 40.748 40.748 0 00.175.213 40.748 40.748 0 00.177.213 40.748 40.748 0 00.177.211 40.748 40.748 0 00.18.21 40.748 40.748 0 00.18.209 40.748 40.748 0 00.182.207 40.748 40.748 0 00.184.207 40.748 40.748 0 00.185.204 40.748 40.748 0 00.186.204 40.748 40.748 0 00.188.202 40.748 40.748 0 00.19.202 40.748 40.748 0 00.19.2 40.748 40.748 0 00.191.198 40.748 40.748 0 00.193.198 40.748 40.748 0 00.195.196 40.748 40.748 0 00.195.194 40.748 40.748 0 00.198.194 40.748 40.748 0 00.198.192 40.748 40.748 0 00.2.19 40.748 40.748 0 00.2.19 40.748 40.748 0 00.203.188 40.748 40.748 0 00.203.186 40.748 40.748 0 00.206.185 40.748 40.748 0 00.205.184 40.748 40.748 0 00.207.183 40.748 40.748 0 00.21.18 40.748 40.748 0 00.209.18 40.748 40.748 0 00.21.178 40.748 40.748 0 00.213.177 40.748 40.748 0 00.213.175 40.748 40.748 0 00.215.174 40.748 40.748 0 00.216.172 40.748 40.748 0 00.217.171 40.748 40.748 0 00.217.17 40.748 40.748 0 00.22.168 40.748 40.748 0 00.22.166 40.748 40.748 0 00.221.165 40.748 40.748 0 00.223.164 40.748 40.748 0 00.224.162 40.748 40.748 0 00.224.16 40.748 40.748 0 00.226.16 40.748 40.748 0 00.227.156 40.748 40.748 0 00.227.156 40.748 40.748 0 00.23.155 40.748 40.748 0 00.23.152 40.748 40.748 0 00.23.152 40.748 40.748 0 00.233.149 40.748 40.748 0 00.233.148 40.748 40.748 0 00.234.147 40.748 40.748 0 00.235.144 40.748 40.748 0 00.236.143 40.748 40.748 0 00.237.142 40.748 40.748 0 00.238.14 40.748 40.748 0 00.239.138 40.748 40.748 0 00.24.137 40.748 40.748 0 00.24.136 40.748 40.748 0 00.242.133 40.748 40.748 0 00.243.132 40.748 40.748 0 00.243.13 40.748 40.748 0 00.245.129 40.748 40.748 0 00.245.127 40.748 40.748 0 00.246.125 40.748 40.748 0 00.247.124 40.748 40.748 0 00.248.121 40.748 40.748 0 00.248.12 40.748 40.748 0 00.25.12 40.748 40.748 0 00.25.117 40.748 40.748 0 00.25.114 40.748 40.748 0 00.252.114 40.748 40.748 0 00.253.112 40.748 40.748 0 00.253.11 40.748 40.748 0 00.254.108 40.748 40.748 0 00.255.107 40.748 40.748 0 00.255.105 40.748 40.748 0 00.256.103 40.748 40.748 0 00.257.101 40.748 40.748 0 00.257.1 40.748 40.748 0 00.259.098 40.748 40.748 0 00.258.096 40.748 40.748 0 00.26.094 40.748 40.748 0 00.26.093 40.748 40.748 0 00.26.09 40.748 40.748 0 00.262.09 40.748 40.748 0 00.262.087 40.748 40.748 0 00.262.086 40.748 40.748 0 00.263.083 40.748 40.748 0 00.264.083 40.748 40.748 0 00.264.08 40.748 40.748 0 00.265.078 40.748 40.748 0 00.265.077 40.748 40.748 0 00.266.075 40.748 40.748 0 00.267.073 40.748 40.748 0 00.266.07 40.748 40.748 0 00.267.07 40.748 40.748 0 00.268.068 40.748 40.748 0 00.268.066 40.748 40.748 0 00.269.063 40.748 40.748 0 00.269.063 40.748 40.748 0 00.27.06 40.748 40.748 0 00.27.058 40.748 40.748 0 00.27.057 40.748 40.748 0 00.27.055 40.748 40.748 0 00.271.053 40.748 40.748 0 00.271.051 40.748 40.748 0 00.272.05 40.748 40.748 0 00.272.047 40.748 40.748 0 00.272.046 40.748 40.748 0 00.273.043 40.748 40.748 0 00.273.042 40.748 40.748 0 00.273.04 40.748 40.748 0 00.273.039 40.748 40.748 0 00.274.036 40.748 40.748 0 00.274.035 40.748 40.748 0 00.274.032 40.748 40.748 0 00.275.031 40.748 40.748 0 00.274.029 40.748 40.748 0 00.275.027 40.748 40.748 0 00.275.025 40.748 40.748 0 00.275.024 40.748 40.748 0 00.275.021 40.748 40.748 0 00.276.02 40.748 40.748 0 00.275.017 40.748 40.748 0 00.276.016 40.748 40.748 0 00.276.014 40.748 40.748 0 00.276.013 40.748 40.748 0 00.276.01 40.748 40.748 0 00.276.009 40.748 40.748 0 00.275.006 40.748 40.748 0 00.276.005 40.748 40.748 0 00.276.003 40.748 40.748 0 00.277 0z"/><circle r="40.936" cy="43.185" cx="43.185" fill="none" stroke="#000" stroke-width="4.498" stroke-linecap="round"/></svg>