<svg xmlns="http://www.w3.org/2000/svg" viewBox="0 0 85.517693 86.679985">
    <path
       id="path896"
       style="opacity:1;fill:none;stroke:#000000;stroke-width:4.49792;stroke-linecap:round;stroke-linejoin:miter;stroke-miterlimit:4;stroke-dasharray:none;stroke-opacity:1"
       d="m 2.24896,79.502401 c 0,0 6.4020975,4.92863 40.509885,4.92863 36.241234,10e-6 40.509883,-4.92861 40.509883,-4.92861 m -81.019768,-2e-5 a 40.561159,35.437986 0 0 1 26.817084,-31.57626 m 27.385573,-1e-5 a 40.561159,35.437986 0 0 1 26.817111,31.57629 M 65.830392,25.098071 A 23.071549,22.849109 0 0 1 42.758843,47.947181 23.071549,22.849109 0 0 1 19.687292,25.098071 23.071549,22.849109 0 0 1 42.758843,2.24896 23.071549,22.849109 0 0 1 65.830392,25.098071 Z" />
</svg>