<svg xmlns="http://www.w3.org/2000/svg" viewBox="0 0 72.264 86.656"><path d="M52.75 33.07v41.185M41.486 33.07v41.186M30.22 33.07v41.186M18.955 33.07v41.186M26.303 2.25h19.658a2.31 2.31 0 012.314 2.315v3.169a2.31 2.31 0 01-2.314 2.315H26.303a2.31 2.31 0 01-2.314-2.315V4.564a2.31 2.31 0 012.314-2.315zM3.571 10.064h65.123c.732 0 1.321.59 1.321 1.323V22.19c0 .733-.59 1.322-1.321 1.322H3.57c-.733 0-1.322-.59-1.322-1.322V11.387c0-.733.59-1.323 1.322-1.323zm59.332 13.45v54.748a6.13 6.13 0 01-6.143 6.145H15.504a6.13 6.13 0 01-6.142-6.145V23.513" fill="none" stroke="#000" stroke-width="4.498" stroke-linecap="round"/></svg>