<svg xmlns="http://www.w3.org/2000/svg" viewBox="0 0 72.3 86.7">
    <path
       id="path952"
       style="opacity:1;fill:none;stroke:#000000;stroke-width:4.49792;stroke-linecap:round;stroke-linejoin:miter;stroke-miterlimit:4;stroke-dasharray:none;stroke-opacity:1"
       d="m 52.750532,33.06925 v 41.1862 m -11.26518,-41.1862 v 41.1862 m -11.26518,-41.1862 v 41.1862 M 18.95498,33.06925 v 41.1862 M 26.303262,2.24896 h 19.65774 c 1.28214,0 2.31434,1.03258 2.31434,2.3152 v 3.16838 c 0,1.28262 -1.0322,2.31521 -2.31434,2.31521 h -19.65774 c -1.28214,0 -2.31433,-1.03259 -2.31433,-2.31521 V 4.56416 c 0,-1.28262 1.03219,-2.3152 2.31433,-2.3152 z M 3.57057,10.06443 h 65.123142 c 0.73217,0 1.3216,0.58966 1.3216,1.3221 v 10.80474 c 0,0.73245 -0.58943,1.3221 -1.3216,1.3221 H 3.57057 c -0.73218,0 -1.32161,-0.58965 -1.32161,-1.3221 V 11.38653 c 0,-0.73245 0.58943,-1.3221 1.32161,-1.3221 z m 59.332202,13.44893 v 54.74868 c 0,3.40411 -2.73948,6.1446 -6.14231,6.1446 H 15.50381 c -3.40284,0 -6.14231,-2.74049 -6.14231,-6.1446 V 23.51336" />
</svg>